<svg xmlns:xlink="http://www.w3.org/1999/xlink" xmlns="http://www.w3.org/2000/svg" viewBox="0 0 395.52 109.91461303693647" height="109.91461303693647" width="395.52"><g id="textblocktransform"><svg viewBox="0 0 395.52 109.91461303693647" height="109.91461303693647" width="395.52" id="textblock"><g><svg viewBox="0 0 395.52 64.30271643009388" height="64.30271643009388" width="395.52"><g transform="matrix(1,0,0,1,0,0)"><svg width="395.52" viewBox="2 -35.349998474121094 220.489990234375 35.849998474121094" height="64.30271643009388" data-palette-color="#152232"><path d="M11.15 0L2.2 0Q2 0 2-0.25L2-0.25 2.1-34.6Q2.1-34.8 2.3-34.8L2.3-34.8 11.9-34.8Q14.75-34.8 17-33.43 19.25-32.05 20.55-29.8 21.85-27.55 21.85-24.9L21.85-24.9Q21.85-22.75 20.88-20.9 19.9-19.05 18.55-17.9L18.55-17.9Q20-16.45 20.8-14.55 21.6-12.65 21.6-10.55L21.6-10.55Q21.6-7.65 20.2-5.25 18.8-2.85 16.43-1.43 14.05 0 11.15 0L11.15 0ZM8.1-28.85L8.1-21 11.9-21Q13.65-21 14.73-22.23 15.8-23.45 15.8-24.9L15.8-24.9Q15.8-26.5 14.65-27.68 13.5-28.85 11.9-28.85L11.9-28.85 8.1-28.85ZM8.1-14.95L8.05-6.1 11.15-6.1Q12.95-6.1 14.25-7.43 15.55-8.75 15.55-10.55L15.55-10.55Q15.55-12.35 14.25-13.65 12.95-14.95 11.15-14.95L11.15-14.95 8.1-14.95ZM31.1 0L25.45 0Q25.2 0 25.2-0.25L25.2-0.25 25.25-34.6Q25.25-34.8 25.45-34.8L25.45-34.8 31.05-34.8Q31.25-34.8 31.25-34.6L31.25-34.6 31.3-0.25Q31.3 0 31.1 0L31.1 0ZM46.35 0L40.7 0Q40.5 0 40.5-0.25L40.5-0.25 40.5-28.75 34-28.75Q33.75-28.75 33.75-29L33.75-29 33.8-34.6Q33.8-34.8 34-34.8L34-34.8 53-34.8Q53.25-34.8 53.25-34.6L53.25-34.6 53.25-29Q53.25-28.75 53.05-28.75L53.05-28.75 46.5-28.75 46.55-0.25Q46.55 0 46.35 0L46.35 0ZM68.94 0L63.29 0Q63.09 0 63.09-0.25L63.09-0.25 63.14-34.6Q63.14-34.8 63.39-34.8L63.39-34.8 68.94-34.8Q69.19-34.8 69.19-34.6L69.19-34.6 69.14-21 76.64-21 76.64-34.6Q76.64-34.8 76.84-34.8L76.84-34.8 82.39-34.8Q82.64-34.8 82.64-34.6L82.64-34.6 82.74-0.25Q82.74 0 82.49 0L82.49 0 76.89 0Q76.64 0 76.64-0.25L76.64-0.25 76.64-14.95 69.14-14.95 69.14-0.25Q69.14 0 68.94 0L68.94 0ZM85.14-0.25L85.14-0.25 91.34-34.6Q91.39-34.8 91.59-34.8L91.59-34.8 98.84-34.8Q99.04-34.8 99.09-34.6L99.09-34.6 105.04-0.25Q105.09 0 104.84 0L104.84 0 99.29 0Q99.09 0 99.04-0.25L99.04-0.25 98.49-3.9 91.69-3.9 91.14-0.25Q91.09 0 90.89 0L90.89 0 85.34 0Q85.14 0 85.14-0.25ZM94.94-23.3L92.69-9.25 97.49-9.25 95.44-23.3 95.14-25.15 94.94-23.3ZM114.03 0L108.39 0Q108.19 0 108.19-0.25L108.19-0.25 108.28-34.6Q108.28-34.8 108.48-34.8L108.48-34.8 118.59-34.8Q121.28-34.8 123.56-33.48 125.84-32.15 127.19-29.93 128.53-27.7 128.53-24.9L128.53-24.9Q128.53-23.05 127.98-21.58 127.44-20.1 126.69-19.07 125.94-18.05 125.34-17.55L125.34-17.55Q128.03-14.55 128.03-10.5L128.03-10.5 128.09-0.25Q128.09 0 127.84 0L127.84 0 122.19 0Q121.98 0 121.98-0.15L121.98-0.15 121.98-10.5Q121.98-12.3 120.71-13.63 119.44-14.95 117.59-14.95L117.59-14.95 114.28-14.95 114.23-0.25Q114.23 0 114.03 0L114.03 0ZM114.28-28.8L114.28-20.95 118.59-20.95Q120.14-20.95 121.34-22.1 122.53-23.25 122.53-24.9L122.53-24.9Q122.53-26.5 121.36-27.65 120.19-28.8 118.59-28.8L118.59-28.8 114.28-28.8ZM138.13 0L132.48 0Q132.28 0 132.28-0.25L132.28-0.25 132.38-34.6Q132.38-34.8 132.58-34.8L132.58-34.8 138.68-34.8Q138.88-34.8 139.03-34.6L139.03-34.6 143.58-28 148.13-34.6Q148.28-34.8 148.48-34.8L148.48-34.8 154.63-34.8Q154.83-34.8 154.83-34.6L154.83-34.6 154.93-0.25Q154.93 0 154.73 0L154.73 0 149.08 0Q148.88 0 148.88-0.25L148.88-0.25 148.83-25.75 143.58-18.15 138.38-25.75 138.33-0.25Q138.33 0 138.13 0L138.13 0ZM168.38 0.5L168.38 0.5Q165.68 0.5 163.45-0.88 161.23-2.25 159.88-4.53 158.53-6.8 158.53-9.55L158.53-9.55 158.58-25.4Q158.58-28.15 159.91-30.4 161.23-32.65 163.48-34 165.73-35.35 168.38-35.35L168.38-35.35Q171.08-35.35 173.28-34 175.48-32.65 176.81-30.4 178.13-28.15 178.13-25.4L178.13-25.4 178.18-9.55Q178.18-6.8 176.85-4.53 175.53-2.25 173.31-0.88 171.08 0.5 168.38 0.5ZM168.38-5.55L168.38-5.55Q169.88-5.55 171-6.78 172.13-8 172.13-9.55L172.13-9.55 172.08-25.4Q172.08-27.05 171.03-28.2 169.98-29.35 168.38-29.35L168.38-29.35Q166.83-29.35 165.73-28.23 164.63-27.1 164.63-25.4L164.63-25.4 164.63-9.55Q164.63-7.9 165.73-6.73 166.83-5.55 168.38-5.55ZM187.43 0L182.43 0Q182.03 0 182.03-0.35L182.03-0.35 181.98-34.4Q181.98-34.8 182.38-34.8L182.38-34.8 186.88-34.8 195.33-15.1 195.08-34.4Q195.08-34.8 195.53-34.8L195.53-34.8 200.48-34.8Q200.78-34.8 200.78-34.4L200.78-34.4 200.83-0.3Q200.83 0 200.58 0L200.58 0 196.18 0 187.53-18.4 187.88-0.4Q187.88 0 187.43 0L187.43 0ZM215.58 0L209.83 0Q209.68 0 209.68-0.2L209.68-0.2 209.73-14.4 203.03-34.6Q202.98-34.8 203.18-34.8L203.18-34.8 208.73-34.8Q208.98-34.8 209.03-34.6L209.03-34.6 212.73-21.15 216.48-34.6Q216.53-34.8 216.73-34.8L216.73-34.8 222.33-34.8Q222.53-34.8 222.48-34.6L222.48-34.6 215.73-14.6 215.78-0.2Q215.78 0 215.58 0L215.58 0Z" opacity="1" transform="matrix(1,0,0,1,0,0)" fill="#152232" class="wordmark-text-0" data-fill-palette-color="primary" id="text-0"></path></svg></g></svg></g><g transform="matrix(1,0,0,1,0,79.48304451404472)"><svg viewBox="0 0 395.52 30.43156852289175" height="30.43156852289175" width="395.52"><g transform="matrix(1,0,0,1,0,0)"><svg width="395.52" viewBox="1.75 -39.650001525878906 656.27001953125 50.5" height="30.43156852289175" data-palette-color="#5ebc67"><path d="M15.25-35.25Q18.1-35.25 20.35-34.23 22.6-33.2 24.6-31.25L24.6-31.25 21.4-27.95Q19.85-29.3 18.5-29.88 17.15-30.45 15.45-30.45L15.45-30.45Q12.15-30.45 10.28-27.5 8.4-24.55 8.4-17.3L8.4-17.3Q8.4-12.2 9.08-9.33 9.75-6.45 11.08-5.3 12.4-4.15 14.55-4.15L14.55-4.15Q16.8-4.15 18.65-5.4L18.65-5.4 18.65-14.75 14.75-14.75 14.1-19.5 24.7-19.5 24.7-2.6Q22.55-1.05 19.93-0.18 17.3 0.7 14.6 0.7L14.6 0.7Q8.15 0.7 4.95-3.68 1.75-8.05 1.75-17.3L1.75-17.3Q1.75-23.3 3.53-27.33 5.3-31.35 8.35-33.3 11.4-35.25 15.25-35.25L15.25-35.25ZM39.15-27.15Q44.15-27.15 46.92-23.65 49.7-20.15 49.7-13.25L49.7-13.25Q49.7-6.65 46.9-2.95 44.1 0.75 39.15 0.75L39.15 0.75Q34.2 0.75 31.4-2.88 28.6-6.5 28.6-13.25L28.6-13.25Q28.6-19.95 31.4-23.55 34.2-27.15 39.15-27.15L39.15-27.15ZM39.15-22.5Q37-22.5 36-20.38 35-18.25 35-13.25L35-13.25Q35-8.2 36-6.08 37-3.95 39.15-3.95L39.15-3.95Q41.3-3.95 42.3-6.08 43.3-8.2 43.3-13.25L43.3-13.25Q43.3-18.3 42.3-20.4 41.3-22.5 39.15-22.5L39.15-22.5ZM63.65-27.15Q68.65-27.15 71.42-23.65 74.2-20.15 74.2-13.25L74.2-13.25Q74.2-6.65 71.4-2.95 68.59 0.75 63.65 0.75L63.65 0.75Q58.7 0.75 55.9-2.88 53.1-6.5 53.1-13.25L53.1-13.25Q53.1-19.95 55.9-23.55 58.7-27.15 63.65-27.15L63.65-27.15ZM63.65-22.5Q61.5-22.5 60.5-20.38 59.5-18.25 59.5-13.25L59.5-13.25Q59.5-8.2 60.5-6.08 61.5-3.95 63.65-3.95L63.65-3.95Q65.8-3.95 66.8-6.08 67.8-8.2 67.8-13.25L67.8-13.25Q67.8-18.3 66.8-20.4 65.8-22.5 63.65-22.5L63.65-22.5ZM91.69-37.7L97.84-37.05 97.84 0 92.39 0 92.09-3.05Q89.74 0.75 86.04 0.75L86.04 0.75Q81.94 0.75 79.77-2.93 77.59-6.6 77.59-13.2L77.59-13.2Q77.59-17.4 78.72-20.58 79.84-23.75 81.84-25.45 83.84-27.15 86.44-27.15L86.44-27.15Q89.64-27.15 91.69-24.5L91.69-24.5 91.69-37.7ZM87.79-3.9Q88.94-3.9 89.87-4.7 90.79-5.5 91.69-7L91.69-7 91.69-19.85Q90.09-22.55 88.04-22.55L88.04-22.55Q83.99-22.55 83.99-13.25L83.99-13.25Q83.99-8.2 84.99-6.05 85.99-3.9 87.79-3.9L87.79-3.9ZM120.74-27.15Q125.44-27.15 128.69-24.05L128.69-24.05 126.34-20.7Q124.94-21.7 123.69-22.2 122.44-22.7 121.14-22.7L121.14-22.7Q119.69-22.7 118.86-21.93 118.04-21.15 118.04-19.8L118.04-19.8Q118.04-18.45 118.96-17.63 119.89-16.8 122.69-15.7L122.69-15.7Q126.14-14.35 127.79-12.5 129.44-10.65 129.44-7.55L129.44-7.55Q129.44-3.7 126.74-1.48 124.04 0.75 119.89 0.75L119.89 0.75Q117.19 0.75 114.91-0.23 112.64-1.2 110.94-2.95L110.94-2.95 113.94-6.25Q116.74-3.8 119.64-3.8L119.64-3.8Q121.29-3.8 122.24-4.67 123.19-5.55 123.19-7.1L123.19-7.1Q123.19-8.25 122.79-8.97 122.39-9.7 121.39-10.33 120.39-10.95 118.39-11.7L118.39-11.7Q114.94-13.05 113.46-14.85 111.99-16.65 111.99-19.45L111.99-19.45Q111.99-22.8 114.36-24.98 116.74-27.15 120.74-27.15L120.74-27.15ZM142.69-27.15Q147.69-27.15 150.46-23.65 153.24-20.15 153.24-13.25L153.24-13.25Q153.24-6.65 150.44-2.95 147.64 0.75 142.69 0.75L142.69 0.75Q137.74 0.75 134.94-2.88 132.14-6.5 132.14-13.25L132.14-13.25Q132.14-19.95 134.94-23.55 137.74-27.15 142.69-27.15L142.69-27.15ZM142.69-22.5Q140.54-22.5 139.54-20.38 138.54-18.25 138.54-13.25L138.54-13.25Q138.54-8.2 139.54-6.08 140.54-3.95 142.69-3.95L142.69-3.95Q144.84-3.95 145.84-6.08 146.84-8.2 146.84-13.25L146.84-13.25Q146.84-18.3 145.84-20.4 144.84-22.5 142.69-22.5L142.69-22.5ZM167.48-33.05Q166.08-33.05 165.41-32.3 164.73-31.55 164.73-30L164.73-30 164.73-26.45 169.78-26.45 169.08-22 164.73-22 164.73 0 158.58 0 158.58-22 155.28-22 155.28-26.45 158.58-26.45 158.58-29.8Q158.58-33.4 160.68-35.55 162.78-37.7 166.68-37.7L166.68-37.7Q169.73-37.7 172.58-36.2L172.58-36.2 170.88-32.2Q169.13-33.05 167.48-33.05L167.48-33.05ZM183.73-5L185.88-1.2Q183.43 0.75 180.13 0.75L180.13 0.75Q176.68 0.75 174.88-1.23 173.08-3.2 173.08-6.6L173.08-6.6 173.08-22 169.98-22 169.98-26.45 173.08-26.45 173.08-32.3 179.23-33.05 179.23-26.45 184.23-26.45 183.63-22 179.23-22 179.23-6.6Q179.23-4.2 181.28-4.2L181.28-4.2Q181.93-4.2 182.43-4.38 182.93-4.55 183.73-5L183.73-5ZM210.48-26.45L216.18-26.45 211.63 0 204.13 0 201.18-20.85 198.28 0 190.83 0 186.18-26.45 192.13-26.45 194.83-4.6 198.18-26.45 204.43-26.45 207.63-4.6 210.48-26.45ZM236.58-6.4Q236.58-5.1 236.93-4.48 237.28-3.85 238.08-3.45L238.08-3.45 236.83 0.65Q234.78 0.4 233.55-0.45 232.33-1.3 231.73-3.05L231.73-3.05Q229.43 0.75 225.28 0.75L225.28 0.75Q221.98 0.75 220.03-1.48 218.08-3.7 218.08-7.4L218.08-7.4Q218.08-11.7 220.75-13.95 223.43-16.2 228.53-16.2L228.53-16.2 230.58-16.2 230.58-18.05Q230.58-20.55 229.7-21.58 228.83-22.6 226.88-22.6L226.88-22.6Q224.53-22.6 221.03-21.3L221.03-21.3 219.63-25.3Q221.63-26.2 223.78-26.68 225.93-27.15 227.88-27.15L227.88-27.15Q236.58-27.15 236.58-18.35L236.58-18.35 236.58-6.4ZM226.93-3.7Q229.33-3.7 230.58-7L230.58-7 230.58-12.55 229.13-12.55Q226.58-12.55 225.4-11.4 224.23-10.25 224.23-7.85L224.23-7.85Q224.23-5.8 224.93-4.75 225.63-3.7 226.93-3.7L226.93-3.7ZM254.02-27.1Q255.17-27.1 256.07-26.75L256.07-26.75 255.07-20.85Q254.07-21.1 253.22-21.1L253.22-21.1Q251.32-21.1 250.22-19.45 249.12-17.8 248.52-14.55L248.52-14.55 248.52 0 242.37 0 242.37-26.45 247.72-26.45 248.17-21.85Q250.02-27.1 254.02-27.1L254.02-27.1ZM277.77-13.85Q277.77-13.4 277.62-11.3L277.62-11.3 263.97-11.3Q264.17-7.2 265.4-5.58 266.62-3.95 268.87-3.95L268.87-3.95Q270.42-3.95 271.67-4.48 272.92-5 274.37-6.15L274.37-6.15 276.92-2.65Q273.42 0.75 268.52 0.75L268.52 0.75Q263.32 0.75 260.55-2.85 257.77-6.45 257.77-13L257.77-13Q257.77-19.55 260.42-23.35 263.07-27.15 267.92-27.15L267.92-27.15Q272.57-27.15 275.17-23.78 277.77-20.4 277.77-13.85L277.77-13.85ZM271.77-15.3L271.77-15.65Q271.77-19.4 270.87-21.13 269.97-22.85 267.97-22.85L267.97-22.85Q266.12-22.85 265.15-21.18 264.17-19.5 263.97-15.3L263.97-15.3 271.77-15.3ZM289.42-27.15Q294.12-27.15 297.37-24.05L297.37-24.05 295.02-20.7Q293.62-21.7 292.37-22.2 291.12-22.7 289.82-22.7L289.82-22.7Q288.37-22.7 287.54-21.93 286.72-21.15 286.72-19.8L286.72-19.8Q286.72-18.45 287.64-17.63 288.57-16.8 291.37-15.7L291.37-15.7Q294.82-14.35 296.47-12.5 298.12-10.65 298.12-7.55L298.12-7.55Q298.12-3.7 295.42-1.48 292.72 0.75 288.57 0.75L288.57 0.75Q285.87 0.75 283.59-0.23 281.32-1.2 279.62-2.95L279.62-2.95 282.62-6.25Q285.42-3.8 288.32-3.8L288.32-3.8Q289.97-3.8 290.92-4.67 291.87-5.55 291.87-7.1L291.87-7.1Q291.87-8.25 291.47-8.97 291.07-9.7 290.07-10.33 289.07-10.95 287.07-11.7L287.07-11.7Q283.62-13.05 282.14-14.85 280.67-16.65 280.67-19.45L280.67-19.45Q280.67-22.8 283.04-24.98 285.42-27.15 289.42-27.15L289.42-27.15ZM323.96-27.15Q327.81-27.15 329.86-23.65 331.91-20.15 331.91-13.25L331.91-13.25Q331.91-6.75 329.61-3 327.31 0.75 323.31 0.75L323.31 0.75Q321.56 0.75 320.11-0.13 318.66-1 317.61-2.55L317.61-2.55 317.26 0 311.81 0 311.81-37 317.96-37.65 317.96-23.6Q319.01-25.3 320.54-26.23 322.06-27.15 323.96-27.15L323.96-27.15ZM321.66-3.9Q323.51-3.9 324.54-6 325.56-8.1 325.56-13.25L325.56-13.25Q325.56-18.6 324.64-20.58 323.71-22.55 322.01-22.55L322.01-22.55Q320.86-22.55 319.81-21.6 318.76-20.65 317.96-19.1L317.96-19.1 317.96-6.7Q318.61-5.45 319.59-4.67 320.56-3.9 321.66-3.9L321.66-3.9ZM355.16-26.45L348.16 0.1Q346.86 4.9 343.96 7.65 341.06 10.4 336.21 10.85L336.21 10.85 335.51 6.5Q338.66 5.85 340.24 4.42 341.81 3 342.71 0L342.71 0 340.41 0 333.71-26.45 339.96-26.45 344.36-4.1 349.06-26.45 355.16-26.45ZM385.86-29.85L387.41-25.1Q386.36-24.6 384.88-24.4 383.41-24.2 381.21-24.2L381.21-24.2Q383.31-23.2 384.33-21.53 385.36-19.85 385.36-17.4L385.36-17.4Q385.36-13.4 382.91-10.95 380.46-8.5 376.26-8.5L376.26-8.5Q375.01-8.5 373.71-8.9L373.71-8.9Q372.81-8.15 372.81-6.85L372.81-6.85Q372.81-5.85 373.36-5.35 373.91-4.85 375.41-4.85L375.41-4.85 378.21-4.85Q382.21-4.85 384.56-2.78 386.91-0.7 386.91 2.5L386.91 2.5Q386.91 6.3 383.98 8.58 381.06 10.85 375.66 10.85L375.66 10.85Q369.96 10.85 367.68 8.75 365.41 6.65 365.41 2.6L365.41 2.6 370.86 2.6Q370.86 4.75 371.86 5.65 372.86 6.55 375.71 6.55L375.71 6.55Q378.46 6.55 379.61 5.6 380.76 4.65 380.76 2.9L380.76 2.9Q380.76 1.2 379.81 0.4 378.86-0.4 376.86-0.4L376.86-0.4 374.96-0.4Q371.16-0.4 369.41-1.75 367.66-3.1 367.66-5.45L367.66-5.45Q367.66-6.8 368.38-8.03 369.11-9.25 370.36-10.2L370.36-10.2Q368.31-11.5 367.36-13.3 366.41-15.1 366.41-17.7L366.41-17.7Q366.41-22.05 369.01-24.58 371.61-27.1 376.01-27.1L376.01-27.1Q379.26-27.1 381.38-27.8 383.51-28.5 385.86-29.85L385.86-29.85ZM376.01-23Q374.26-23 373.36-21.75 372.46-20.5 372.46-17.8L372.46-17.8Q372.46-15.25 373.36-13.88 374.26-12.5 375.96-12.5L375.96-12.5Q377.71-12.5 378.56-13.73 379.41-14.95 379.41-17.85L379.41-17.85Q379.41-20.55 378.58-21.78 377.76-23 376.01-23L376.01-23ZM399.55-27.15Q404.55-27.15 407.33-23.65 410.1-20.15 410.1-13.25L410.1-13.25Q410.1-6.65 407.3-2.95 404.5 0.75 399.55 0.75L399.55 0.75Q394.6 0.75 391.8-2.88 389-6.5 389-13.25L389-13.25Q389-19.95 391.8-23.55 394.6-27.15 399.55-27.15L399.55-27.15ZM399.55-22.5Q397.4-22.5 396.4-20.38 395.4-18.25 395.4-13.25L395.4-13.25Q395.4-8.2 396.4-6.08 397.4-3.95 399.55-3.95L399.55-3.95Q401.7-3.95 402.7-6.08 403.7-8.2 403.7-13.25L403.7-13.25Q403.7-18.3 402.7-20.4 401.7-22.5 399.55-22.5L399.55-22.5ZM424.05-27.15Q429.05-27.15 431.83-23.65 434.6-20.15 434.6-13.25L434.6-13.25Q434.6-6.65 431.8-2.95 429 0.75 424.05 0.75L424.05 0.75Q419.1 0.75 416.3-2.88 413.5-6.5 413.5-13.25L413.5-13.25Q413.5-19.95 416.3-23.55 419.1-27.15 424.05-27.15L424.05-27.15ZM424.05-22.5Q421.9-22.5 420.9-20.38 419.9-18.25 419.9-13.25L419.9-13.25Q419.9-8.2 420.9-6.08 421.9-3.95 424.05-3.95L424.05-3.95Q426.2-3.95 427.2-6.08 428.2-8.2 428.2-13.25L428.2-13.25Q428.2-18.3 427.2-20.4 426.2-22.5 424.05-22.5L424.05-22.5ZM452.1-37.7L458.25-37.05 458.25 0 452.8 0 452.5-3.05Q450.15 0.75 446.45 0.75L446.45 0.75Q442.35 0.75 440.17-2.93 438-6.6 438-13.2L438-13.2Q438-17.4 439.12-20.58 440.25-23.75 442.25-25.45 444.25-27.15 446.85-27.15L446.85-27.15Q450.05-27.15 452.1-24.5L452.1-24.5 452.1-37.7ZM448.2-3.9Q449.35-3.9 450.27-4.7 451.2-5.5 452.1-7L452.1-7 452.1-19.85Q450.5-22.55 448.45-22.55L448.45-22.55Q444.4-22.55 444.4-13.25L444.4-13.25Q444.4-8.2 445.4-6.05 446.4-3.9 448.2-3.9L448.2-3.9ZM492.64-13.85Q492.64-13.4 492.49-11.3L492.49-11.3 478.84-11.3Q479.04-7.2 480.27-5.58 481.49-3.95 483.74-3.95L483.74-3.95Q485.29-3.95 486.54-4.48 487.79-5 489.24-6.15L489.24-6.15 491.79-2.65Q488.29 0.75 483.39 0.75L483.39 0.75Q478.19 0.75 475.42-2.85 472.64-6.45 472.64-13L472.64-13Q472.64-19.55 475.29-23.35 477.94-27.15 482.79-27.15L482.79-27.15Q487.44-27.15 490.04-23.78 492.64-20.4 492.64-13.85L492.64-13.85ZM486.64-15.3L486.64-15.65Q486.64-19.4 485.74-21.13 484.84-22.85 482.84-22.85L482.84-22.85Q480.99-22.85 480.02-21.18 479.04-19.5 478.84-15.3L478.84-15.3 486.64-15.3ZM509.29-27.15Q512.14-27.15 513.79-25.1 515.44-23.05 515.44-19.6L515.44-19.6 515.44 0 509.29 0 509.29-18.9Q509.29-20.8 508.77-21.63 508.24-22.45 507.24-22.45L507.24-22.45Q505.14-22.45 503.09-18.5L503.09-18.5 503.09 0 496.94 0 496.94-26.45 502.29-26.45 502.74-23Q504.09-25.1 505.62-26.13 507.14-27.15 509.29-27.15L509.29-27.15ZM538.94-29.85L540.49-25.1Q539.44-24.6 537.96-24.4 536.49-24.2 534.29-24.2L534.29-24.2Q536.39-23.2 537.41-21.53 538.44-19.85 538.44-17.4L538.44-17.4Q538.44-13.4 535.99-10.95 533.54-8.5 529.34-8.5L529.34-8.5Q528.09-8.5 526.79-8.9L526.79-8.9Q525.89-8.15 525.89-6.85L525.89-6.85Q525.89-5.85 526.44-5.35 526.99-4.85 528.49-4.85L528.49-4.85 531.29-4.85Q535.29-4.85 537.64-2.78 539.99-0.7 539.99 2.5L539.99 2.5Q539.99 6.3 537.06 8.58 534.14 10.85 528.74 10.85L528.74 10.85Q523.04 10.85 520.76 8.75 518.49 6.65 518.49 2.6L518.49 2.6 523.94 2.6Q523.94 4.75 524.94 5.65 525.94 6.55 528.79 6.55L528.79 6.55Q531.54 6.55 532.69 5.6 533.84 4.65 533.84 2.9L533.84 2.9Q533.84 1.2 532.89 0.4 531.94-0.4 529.94-0.4L529.94-0.4 528.04-0.4Q524.24-0.4 522.49-1.75 520.74-3.1 520.74-5.45L520.74-5.45Q520.74-6.8 521.46-8.03 522.19-9.25 523.44-10.2L523.44-10.2Q521.39-11.5 520.44-13.3 519.49-15.1 519.49-17.7L519.49-17.7Q519.49-22.05 522.09-24.58 524.69-27.1 529.09-27.1L529.09-27.1Q532.34-27.1 534.46-27.8 536.59-28.5 538.94-29.85L538.94-29.85ZM529.09-23Q527.34-23 526.44-21.75 525.54-20.5 525.54-17.8L525.54-17.8Q525.54-15.25 526.44-13.88 527.34-12.5 529.04-12.5L529.04-12.5Q530.79-12.5 531.64-13.73 532.49-14.95 532.49-17.85L532.49-17.85Q532.49-20.55 531.66-21.78 530.84-23 529.09-23L529.09-23ZM543.24-26.45L549.38-26.45 549.38 0 543.24 0 543.24-26.45ZM546.28-39.65Q547.93-39.65 548.96-38.6 549.99-37.55 549.99-35.9L549.99-35.9Q549.99-34.3 548.96-33.25 547.93-32.2 546.28-32.2L546.28-32.2Q544.63-32.2 543.61-33.25 542.59-34.3 542.59-35.9L542.59-35.9Q542.59-37.55 543.61-38.6 544.63-39.65 546.28-39.65L546.28-39.65ZM567.43-27.15Q570.28-27.15 571.93-25.1 573.58-23.05 573.58-19.6L573.58-19.6 573.58 0 567.43 0 567.43-18.9Q567.43-20.8 566.91-21.63 566.38-22.45 565.38-22.45L565.38-22.45Q563.28-22.45 561.23-18.5L561.23-18.5 561.23 0 555.08 0 555.08-26.45 560.43-26.45 560.88-23Q562.23-25.1 563.76-26.13 565.28-27.15 567.43-27.15L567.43-27.15ZM597.98-13.85Q597.98-13.4 597.83-11.3L597.83-11.3 584.18-11.3Q584.38-7.2 585.6-5.58 586.83-3.95 589.08-3.95L589.08-3.95Q590.63-3.95 591.88-4.48 593.13-5 594.58-6.15L594.58-6.15 597.13-2.65Q593.63 0.75 588.73 0.75L588.73 0.75Q583.53 0.75 580.75-2.85 577.98-6.45 577.98-13L577.98-13Q577.98-19.55 580.63-23.35 583.28-27.15 588.13-27.15L588.13-27.15Q592.78-27.15 595.38-23.78 597.98-20.4 597.98-13.85L597.98-13.85ZM591.98-15.3L591.98-15.65Q591.98-19.4 591.08-21.13 590.18-22.85 588.18-22.85L588.18-22.85Q586.33-22.85 585.35-21.18 584.38-19.5 584.18-15.3L584.18-15.3 591.98-15.3ZM621.13-13.85Q621.13-13.4 620.98-11.3L620.98-11.3 607.33-11.3Q607.53-7.2 608.75-5.58 609.98-3.95 612.23-3.95L612.23-3.95Q613.78-3.95 615.03-4.48 616.28-5 617.73-6.15L617.73-6.15 620.28-2.65Q616.78 0.75 611.88 0.75L611.88 0.75Q606.68 0.75 603.9-2.85 601.13-6.45 601.13-13L601.13-13Q601.13-19.55 603.78-23.35 606.43-27.15 611.28-27.15L611.28-27.15Q615.93-27.15 618.53-23.78 621.13-20.4 621.13-13.85L621.13-13.85ZM615.13-15.3L615.13-15.65Q615.13-19.4 614.23-21.13 613.33-22.85 611.33-22.85L611.33-22.85Q609.48-22.85 608.5-21.18 607.53-19.5 607.33-15.3L607.33-15.3 615.13-15.3ZM637.07-27.1Q638.22-27.1 639.12-26.75L639.12-26.75 638.12-20.85Q637.12-21.1 636.27-21.1L636.27-21.1Q634.37-21.1 633.27-19.45 632.17-17.8 631.57-14.55L631.57-14.55 631.57 0 625.42 0 625.42-26.45 630.77-26.45 631.22-21.85Q633.07-27.1 637.07-27.1L637.07-27.1ZM649.32-27.15Q654.02-27.15 657.27-24.05L657.27-24.05 654.92-20.7Q653.52-21.7 652.27-22.2 651.02-22.7 649.72-22.7L649.72-22.7Q648.27-22.7 647.45-21.93 646.62-21.15 646.62-19.8L646.62-19.8Q646.62-18.45 647.55-17.63 648.47-16.8 651.27-15.7L651.27-15.7Q654.72-14.35 656.37-12.5 658.02-10.65 658.02-7.55L658.02-7.55Q658.02-3.7 655.32-1.48 652.62 0.75 648.47 0.75L648.47 0.75Q645.77 0.75 643.5-0.23 641.22-1.2 639.52-2.95L639.52-2.95 642.52-6.25Q645.32-3.8 648.22-3.8L648.22-3.8Q649.87-3.8 650.82-4.67 651.77-5.55 651.77-7.1L651.77-7.1Q651.77-8.25 651.37-8.97 650.97-9.7 649.97-10.33 648.97-10.95 646.97-11.7L646.97-11.7Q643.52-13.05 642.05-14.85 640.57-16.65 640.57-19.45L640.57-19.45Q640.57-22.8 642.95-24.98 645.32-27.15 649.32-27.15L649.32-27.15Z" opacity="1" transform="matrix(1,0,0,1,0,0)" fill="#B10DC9" class="slogan-text-1" data-fill-palette-color="secondary" id="text-1"></path></svg></g></svg></g></svg></g></svg>
