<svg xmlns="http://www.w3.org/2000/svg" viewBox="0 0 395.52 64.303">
  <svg data-palette-color="#152232" viewBox="2 -35.35 220.49 35.85">
    <path fill="#152232" d="M11.15 0H2.2Q2 0 2-.25l.1-34.35q0-.2.2-.2h9.6q2.85 0 5.1 1.37 2.25 1.38 3.55 3.63 1.3 2.25 1.3 4.9 0 2.15-.97 4-.98 1.85-2.33 3 1.45 1.45 2.25 3.35.8 1.9.8 4 0 2.9-1.4 5.3t-3.77 3.82Q14.05 0 11.15 0ZM8.1-28.85V-21h3.8q1.75 0 2.83-1.23 1.07-1.22 1.07-2.67 0-1.6-1.15-2.78-1.15-1.17-2.75-1.17H8.1Zm0 13.9L8.05-6.1h3.1q1.8 0 3.1-1.33 1.3-1.32 1.3-3.12t-1.3-3.1q-1.3-1.3-3.1-1.3H8.1ZM31.1 0h-5.65q-.25 0-.25-.25l.05-34.35q0-.2.2-.2h5.6q.2 0 .2.2L31.3-.25q0 .25-.2.25Zm15.25 0H40.7q-.2 0-.2-.25v-28.5H34q-.25 0-.25-.25l.05-5.6q0-.2.2-.2h19q.25 0 .25.2v5.6q0 .25-.2.25H46.5l.05 28.5q0 .25-.2.25Zm22.59 0h-5.65q-.2 0-.2-.25l.05-34.35q0-.2.25-.2h5.55q.25 0 .25.2L69.14-21h7.5v-13.6q0-.2.2-.2h5.55q.25 0 .25.2l.1 34.35q0 .25-.25.25h-5.6q-.25 0-.25-.25v-14.7h-7.5v14.7q0 .25-.2.25Zm16.2-.25 6.2-34.35q.05-.2.25-.2h7.25q.2 0 .25.2l5.95 34.35q.05.25-.2.25h-5.55q-.2 0-.25-.25l-.55-3.65h-6.8l-.55 3.65q-.05.25-.25.25h-5.55q-.2 0-.2-.25Zm9.8-23.05L92.69-9.25h4.8L95.44-23.3l-.3-1.85-.2 1.85ZM114.03 0h-5.64q-.2 0-.2-.25l.09-34.35q0-.2.2-.2h10.11q2.69 0 4.97 1.32 2.28 1.33 3.63 3.55 1.34 2.23 1.34 5.03 0 1.85-.55 3.32-.54 1.48-1.29 2.51-.75 1.02-1.35 1.52 2.69 3 2.69 7.05l.06 10.25q0 .25-.25.25h-5.65q-.21 0-.21-.15V-10.5q0-1.8-1.27-3.13-1.27-1.32-3.12-1.32h-3.31l-.05 14.7q0 .25-.2.25Zm.25-28.8v7.85h4.31q1.55 0 2.75-1.15 1.19-1.15 1.19-2.8 0-1.6-1.17-2.75t-2.77-1.15h-4.31ZM138.13 0h-5.65q-.2 0-.2-.25l.1-34.35q0-.2.2-.2h6.1q.2 0 .35.2l4.55 6.6 4.55-6.6q.15-.2.35-.2h6.15q.2 0 .2.2l.1 34.35q0 .25-.2.25h-5.65q-.2 0-.2-.25l-.05-25.5-5.25 7.6-5.2-7.6-.05 25.5q0 .25-.2.25Zm30.25.5q-2.7 0-4.93-1.38-2.22-1.37-3.57-3.65-1.35-2.27-1.35-5.02l.05-15.85q0-2.75 1.33-5 1.32-2.25 3.57-3.6t4.9-1.35q2.7 0 4.9 1.35t3.53 3.6q1.32 2.25 1.32 5l.05 15.85q0 2.75-1.33 5.02-1.32 2.28-3.54 3.65Q171.08.5 168.38.5Zm0-6.05q1.5 0 2.62-1.23 1.13-1.22 1.13-2.77l-.05-15.85q0-1.65-1.05-2.8t-2.65-1.15q-1.55 0-2.65 1.12-1.1 1.13-1.1 2.83v15.85q0 1.65 1.1 2.82 1.1 1.18 2.65 1.18ZM187.43 0h-5q-.4 0-.4-.35l-.05-34.05q0-.4.4-.4h4.5l8.45 19.7-.25-19.3q0-.4.45-.4h4.95q.3 0 .3.4l.05 34.1q0 .3-.25.3h-4.4l-8.65-18.4.35 18q0 .4-.45.4Zm28.15 0h-5.75q-.15 0-.15-.2l.05-14.2-6.7-20.2q-.05-.2.15-.2h5.55q.25 0 .3.2l3.7 13.45 3.75-13.45q.05-.2.25-.2h5.6q.2 0 .15.2l-6.75 20 .05 14.4q0 .2-.2.2Z" class="wordmark-text-0" data-fill-palette-color="primary"/>
  </svg>
</svg>
